<svg xmlns="http://www.w3.org/2000/svg" viewBox="0 0 1024 1024" fill="#5DFDCB">
  <g transform="translate(0,1024) scale(0.1,-0.1)">
    <path d="M7705 10159 c-252 -37 -513 -76 -585 -89 -30 -5 -131 -21 -225 -36
-93 -15 -194 -33 -223 -41 -53 -14 -54 -15 -83 -79 -16 -36 -49 -113 -74 -172
-93 -228 -235 -546 -248 -560 -13 -12 -43 -7 -233 41 -412 104 -634 137 -945
137 -445 0 -891 -74 -1375 -229 -180 -57 -591 -248 -754 -351 -311 -194 -555
-385 -789 -614 -505 -496 -864 -1061 -1073 -1691 -54 -163 -131 -447 -156
-575 -53 -272 -72 -474 -72 -749 0 -227 6 -314 36 -561 77 -629 318 -1250 692
-1780 121 -171 221 -287 408 -471 173 -169 198 -193 357 -322 122 -101 171
-132 187 -122 15 9 49 80 130 270 40 94 117 269 170 390 54 121 124 279 155
350 31 72 74 168 95 215 111 247 150 339 150 353 0 9 -22 45 -50 81 -301 393
-493 886 -531 1369 -46 570 114 1136 463 1639 141 204 398 453 617 600 271
180 547 292 911 369 182 38 764 38 865 -1 14 -5 25 -17 25 -26 0 -9 -20 -62
-44 -118 -24 -55 -82 -193 -129 -306 -47 -113 -134 -315 -192 -450 -59 -135
-126 -290 -150 -345 -74 -175 -244 -574 -325 -765 -43 -102 -122 -286 -175
-410 -54 -124 -142 -331 -196 -460 -55 -129 -103 -244 -109 -255 -13 -29 -106
-241 -196 -450 -170 -396 -207 -483 -239 -560 -18 -44 -58 -137 -89 -208 -31
-70 -81 -184 -112 -255 -31 -70 -71 -163 -89 -207 -18 -44 -81 -190 -140 -325
-131 -299 -249 -571 -314 -728 -27 -64 -88 -203 -134 -308 -47 -105 -124 -283
-172 -395 -96 -226 -250 -576 -326 -741 -50 -109 -58 -142 -36 -151 10 -4 251
28 577 78 58 9 134 20 170 25 466 67 591 90 615 114 11 12 85 172 164 356 78
184 149 345 157 357 18 29 51 29 175 2 230 -50 282 -60 414 -78 256 -36 680
-37 938 -1 39 5 108 15 152 21 429 57 856 189 1280 393 518 250 1025 655 1381
1101 118 149 301 414 384 555 286 492 474 1047 540 1594 22 179 40 414 40 523
0 119 -20 366 -44 543 -104 764 -386 1431 -851 2015 -165 208 -589 605 -645
605 -8 0 -21 -4 -28 -9 -7 -4 -57 -113 -111 -242 -54 -129 -122 -286 -151
-349 -46 -101 -128 -294 -250 -585 -21 -49 -49 -115 -63 -145 -76 -166 -117
-262 -117 -273 0 -7 30 -57 66 -112 220 -336 349 -661 416 -1055 20 -116 23
-170 23 -380 0 -323 -22 -457 -127 -778 -219 -672 -774 -1246 -1427 -1477
-281 -100 -467 -129 -821 -129 -260 -1 -370 10 -386 35 -7 12 7 49 157 399 64
151 147 347 184 435 37 88 111 264 166 391 54 127 136 323 183 435 46 112 99
236 116 274 18 39 92 210 165 380 73 171 186 432 250 580 65 149 155 358 200
465 45 107 129 301 185 430 56 129 113 260 126 291 13 32 60 140 105 240 45
101 97 220 114 264 18 44 47 114 65 155 18 41 110 257 205 480 95 223 212 495
260 605 48 110 107 247 130 305 24 58 71 166 105 240 62 136 196 450 308 720
33 80 76 181 95 224 19 44 33 85 30 93 -7 19 -69 15 -298 -18z"/>
  </g>
</svg>
